<?xml version="1.0" encoding="UTF-8"?>
<svg xmlns="http://www.w3.org/2000/svg" xmlns:xlink="http://www.w3.org/1999/xlink" width="20px" height="20px" viewBox="0 0 20 20" version="1.1">
<g id="surface1">
<path style=" stroke:none;fill-rule:nonzero;fill:rgb(0%,0%,0%);fill-opacity:1;" d="M 20 2.5 L 3.535156 2.5 L 3.5 2.207031 C 3.351562 0.949219 2.285156 0 1.019531 0 L 0 0 L 0 1.667969 L 1.019531 1.667969 C 1.441406 1.667969 1.796875 1.984375 1.84375 2.402344 L 3.167969 13.625 C 3.316406 14.882812 4.382812 15.832031 5.648438 15.832031 L 16.667969 15.832031 L 16.667969 14.167969 L 5.648438 14.167969 C 5.226562 14.167969 4.871094 13.851562 4.820312 13.429688 L 4.710938 12.5 L 18.195312 12.5 Z M 20 2.5 "/>
<path style=" stroke:none;fill-rule:nonzero;fill:rgb(0%,0%,0%);fill-opacity:1;" d="M 7.5 18.332031 C 7.5 17.414062 6.753906 16.667969 5.832031 16.667969 C 4.914062 16.667969 4.167969 17.414062 4.167969 18.332031 C 4.167969 19.253906 4.914062 20 5.832031 20 C 6.753906 20 7.5 19.253906 7.5 18.332031 Z M 7.5 18.332031 "/>
<path style=" stroke:none;fill-rule:nonzero;fill:rgb(0%,0%,0%);fill-opacity:1;" d="M 15.832031 18.332031 C 15.832031 17.414062 15.085938 16.667969 14.167969 16.667969 C 13.246094 16.667969 12.5 17.414062 12.5 18.332031 C 12.5 19.253906 13.246094 20 14.167969 20 C 15.085938 20 15.832031 19.253906 15.832031 18.332031 Z M 15.832031 18.332031 "/>
</g>
</svg>
